<?xml version="1.0" encoding="iso-8859-1"?>
<!-- Generator: Adobe Illustrator 17.1.0, SVG Export Plug-In . SVG Version: 6.00 Build 0)  -->
<!DOCTYPE svg PUBLIC "-//W3C//DTD SVG 1.1//EN" "http://www.w3.org/Graphics/SVG/1.1/DTD/svg11.dtd">
<svg version="1.1" id="Camada_1" xmlns="http://www.w3.org/2000/svg" xmlns:xlink="http://www.w3.org/1999/xlink" x="0px" y="0px"
	 viewBox="0 0 60 60" style="enable-background:new 0 0 60 60;" xml:space="preserve">
<g>
	<g id="Menu_1_">
		<path d="M6.89,18.945H53.11c0.85,0,1.541-0.863,1.541-1.926c0-1.063-0.69-1.926-1.541-1.926H6.89c-0.85,0-1.541,0.863-1.541,1.926
			C5.349,18.082,6.039,18.945,6.89,18.945z"/>
		<path d="M53.11,28.574H6.89c-0.85,0-1.541,0.863-1.541,1.926c0,1.063,0.69,1.926,1.541,1.926H53.11
			c0.85,0,1.541-0.863,1.541-1.926C54.651,29.437,53.961,28.574,53.11,28.574z"/>
		<path d="M53.11,42.055H22.297c-0.85,0-1.541,0.863-1.541,1.926c0,1.063,0.69,1.926,1.541,1.926H53.11
			c0.85,0,1.541-0.863,1.541-1.926C54.651,42.918,53.961,42.055,53.11,42.055z"/>
	</g>
</g>
</svg>
