<?xml version="1.0" encoding="utf-8"?>
<!-- Generator: Adobe Illustrator 21.1.0, SVG Export Plug-In . SVG Version: 6.00 Build 0)  -->
<svg version="1.1" id="Camada_1" xmlns="http://www.w3.org/2000/svg" xmlns:xlink="http://www.w3.org/1999/xlink" x="0px" y="0px"
	 viewBox="0 0 60 60" style="enable-background:new 0 0 60 60;" xml:space="preserve">
<g>
	<path d="M31.6,29l0-21.1c0-0.9-0.7-1.6-1.6-1.6s-1.6,0.7-1.6,1.6l0,21.1L7.3,29c-0.9,0-1.6,0.7-1.6,1.6c0,0.9,0.7,1.6,1.6,1.6
		l21.1,0l0,21.1c0,0.9,0.7,1.6,1.6,1.6c0.5,0,0.9-0.5,1.1-0.7s0.7-0.7,0.5-0.9l0-21.1l21.1,0c0.5,0,0.9-0.5,1.1-0.7
		c0.2-0.2,0.7-0.7,0.5-0.9c0-0.9-0.7-1.6-1.6-1.6L31.6,29z"/>
</g>
</svg>
