<?xml version="1.0" encoding="iso-8859-1"?>
<!-- Generator: Adobe Illustrator 17.1.0, SVG Export Plug-In . SVG Version: 6.00 Build 0)  -->
<!DOCTYPE svg PUBLIC "-//W3C//DTD SVG 1.1//EN" "http://www.w3.org/Graphics/SVG/1.1/DTD/svg11.dtd">
<svg version="1.1" id="Camada_1" xmlns="http://www.w3.org/2000/svg" xmlns:xlink="http://www.w3.org/1999/xlink" x="0px" y="0px"
	 viewBox="0 0 60 60" style="enable-background:new 0 0 60 60;" xml:space="preserve">
<g>
	<path d="M33.439,30.623L56.282,7.78c0.982-0.982,0.982-2.456,0-3.439s-2.456-0.982-3.439,0L30,27.184L7.157,4.341
		c-0.982-0.982-2.456-0.982-3.439,0s-0.982,2.456,0,3.439l22.843,22.843L3.718,53.466c-0.982,0.982-0.982,2.456,0,3.439
		c0.491,0.491,1.474,0.491,1.965,0.491s1.474,0,1.474-0.491L30,34.061l22.843,22.843c0.491,0.491,1.474,0.491,1.965,0.491
		s1.474,0,1.474-0.491c0.982-0.982,0.982-2.456,0-3.439L33.439,30.623z"/>
</g>
</svg>
