<?xml version="1.0" encoding="utf-8"?>
<!-- Generator: Adobe Illustrator 21.1.0, SVG Export Plug-In . SVG Version: 6.00 Build 0)  -->
<svg version="1.1" id="Camada_1" xmlns="http://www.w3.org/2000/svg" xmlns:xlink="http://www.w3.org/1999/xlink" x="0px" y="0px"
	 viewBox="0 0 60 60" style="enable-background:new 0 0 60 60;" xml:space="preserve">
<style type="text/css">
	.st0{fill:#808080;}
</style>
<g>
	<path class="st0" d="M32.8,30.6l18.7-18.7c0.8-0.8,0.8-2,0-2.8s-2-0.8-2.8,0L30,27.8L11.3,9.1c-0.8-0.8-2-0.8-2.8,0s-0.8,2,0,2.8
		l18.7,18.7L8.5,49.3c-0.8,0.8-0.8,2,0,2.8c0.4,0.4,1.2,0.4,1.6,0.4s1.2,0,1.2-0.4L30,33.4l18.7,18.7c0.4,0.4,1.2,0.4,1.6,0.4
		s1.2,0,1.2-0.4c0.8-0.8,0.8-2,0-2.8L32.8,30.6z"/>
</g>
</svg>
