<?xml version="1.0" encoding="iso-8859-1"?>
<!-- Generator: Adobe Illustrator 17.1.0, SVG Export Plug-In . SVG Version: 6.00 Build 0)  -->
<!DOCTYPE svg PUBLIC "-//W3C//DTD SVG 1.1//EN" "http://www.w3.org/Graphics/SVG/1.1/DTD/svg11.dtd">
<svg version="1.1" id="Camada_1" xmlns="http://www.w3.org/2000/svg" xmlns:xlink="http://www.w3.org/1999/xlink" x="0px" y="0px"
	 viewBox="0 13.076 60 33.847" style="enable-background:new 0 13.076 60 33.847;" xml:space="preserve">
<g>
	<path style="fill:#222221;" d="M28.215,24.46c-0.874,0-1.771,0.209-2.692,0.627c-0.921,0.418-1.667,1.025-2.236,1.823l1.88-9.201
		h-0.627l-3.133,1.139l0.086,0.541c0.379-0.171,0.673-0.256,0.883-0.256c0.285,0,0.427,0.114,0.427,0.342
		c0,0.076-0.01,0.133-0.028,0.171l-3.839,18.822l1.498-0.235l0.546-2.18c0.247,0.722,0.731,1.296,1.453,1.723
		c0.721,0.427,1.652,0.641,2.791,0.641c1.918,0,3.508-0.56,4.771-1.68c1.263-1.12,2.15-2.953,2.663-5.498
		c0.152-0.684,0.228-1.386,0.228-2.108c0-1.519-0.404-2.677-1.211-3.475C30.869,24.859,29.715,24.46,28.215,24.46z M30.665,31.381
		c-0.399,1.862-1.04,3.343-1.923,4.444c-0.883,1.102-2.084,1.652-3.603,1.652c-1.025,0-1.818-0.323-2.379-0.969
		c-0.56-0.645-0.84-1.443-0.84-2.392c0-0.304,0.028-0.608,0.085-0.912l0.712-3.446c0.171-0.816,0.508-1.557,1.011-2.222
		c0.503-0.664,1.097-1.186,1.78-1.566c0.684-0.38,1.357-0.57,2.022-0.57c2.26,0,3.39,1.253,3.39,3.76
		C30.921,29.806,30.836,30.546,30.665,31.381z"/>
	<path style="fill:#222221;" d="M34.966,38.417l2.051-0.285l1.68-8.261c0.342-1.291,0.855-2.317,1.538-3.076
		c0.684-0.759,1.424-1.118,2.222-1.139c0.587-0.015,0.785,0.738,0.87,0.805c0.026,0.02,0.962-1.084,0.962-1.084
		s-0.358-0.905-1.12-0.917c-0.797-0.012-1.543,0.242-2.236,0.726c-0.694,0.484-1.249,1.097-1.667,1.837l0.484-2.336h-0.598
		l-3.105,1.111l0.028,0.541c0.076-0.019,0.218-0.067,0.427-0.143c0.209-0.075,0.38-0.114,0.513-0.114
		c0.095,0,0.185,0.028,0.27,0.085c0.085,0.057,0.128,0.152,0.128,0.285c0,0.076-0.01,0.133-0.028,0.171L34.966,38.417z"/>
	<path style="fill:#222221;" d="M13.817,17.567c-2.127,0-3.741,0.399-4.843,1.196c-1.101,0.797-1.823,2.022-2.165,3.675
		l-0.516,2.404l-1.165,5.715c-1.553,0.031-2.626,0.05-2.626,0.05L2.133,31.4l2.827-0.017l-2.252,11.05l2.022-0.171l2.213-10.891
		l7.58-0.045l-1.428,7.04l1.469-0.264l2.18-7.829c0,0-0.47-0.008-0.627,0c-1.411,0.075-5.629,0.173-9.001,0.244l1.168-5.746
		l0.69-3.272c0.209-1.006,0.731-1.756,1.567-2.25c0.835-0.494,1.84-0.676,3.074-0.676c0.949,0,1.647,0.208,2.233,0.49
		c1.628,0.783,2.449,2.762,2.449,2.762l0.901-0.842C19.198,20.98,18.082,17.567,13.817,17.567z"/>
	<path style="fill:#222221;" d="M53.879,34.572l-0.791,3.956l1.665-0.236l3.114-13.547h-1.994l-0.228,1.083
		c-0.247-0.456-0.694-0.797-1.339-1.026c-0.646-0.228-1.358-0.342-2.137-0.342c-1.025,0-2.046,0.275-3.062,0.826
		c-1.016,0.551-1.928,1.41-2.734,2.578c-0.808,1.168-1.392,2.635-1.752,4.401c-0.171,0.76-0.257,1.576-0.257,2.45
		c0,1.178,0.252,2.089,0.755,2.734c0.503,0.645,1.277,0.968,2.321,0.968c0.759,0,1.738-0.309,2.934-0.926
		C51.572,36.875,52.739,35.901,53.879,34.572z M52.583,34.657c-0.769,0.741-1.566,1.386-2.393,1.937
		c-0.826,0.551-1.495,0.826-2.008,0.826c-0.551,0-1.002-0.257-1.353-0.769c-0.352-0.512-0.527-1.272-0.527-2.278
		c0-0.57,0.076-1.291,0.228-2.165c0.323-1.633,0.835-2.953,1.538-3.959c0.702-1.006,1.434-1.718,2.194-2.137
		c0.759-0.417,1.433-0.627,2.022-0.627c1.841,0,2.848,0.722,3.019,2.165l-1.082,5.156C53.898,33.3,53.352,33.917,52.583,34.657z"/>
	<circle style="fill:#222221;" cx="16.259" cy="27.633" r="0.839"/>
</g>
</svg>
